<svg id="Capa_1" enable-background="new 0 0 344 344" height="512" viewBox="0 0 344 344" width="512" xmlns="http://www.w3.org/2000/svg"><path d="m270.286 335.056v-52.485h-24.571-147.429-24.572v52.485c0 4.933 4.011 8.944 8.944 8.944h178.69c4.92 0 8.938-4.011 8.938-8.944zm-98.286 2.801c-13.551 0-24.571-11.02-24.571-24.571s11.02-24.571 24.571-24.571 24.571 11.02 24.571 24.571-11.026 24.571-24.571 24.571z"/><circle cx="172" cy="313.286" r="12.286"/><path d="m165.857 155.918v-35.407l-24.571-12.286v35.407z"/><path d="m185.735 165.857 23.122 11.561 23.122-11.561-23.122-11.561z"/><path d="m178.143 155.918 24.571-12.286v-35.407l-24.571 12.286z"/><path d="m264.131 0h-184.268c-3.391 0-6.149 2.758-6.149 6.149v264.137h18.429 159.714 18.429v-264.137c0-3.391-2.758-6.149-6.155-6.149zm-110.56 12.286h36.857c3.391 0 6.143 2.752 6.143 6.143s-2.752 6.143-6.143 6.143h-36.857c-3.391 0-6.143-2.752-6.143-6.143s2.753-6.143 6.143-6.143zm98.286 202.714c0 2.328-1.315 4.454-3.397 5.498-2.666 1.333-5.326 2.666-7.992 3.993-5.314 2.66-10.627 5.314-15.947 7.973-3.974 1.984-7.943 3.968-11.917 5.959-2.396 1.198-4.718 1.358-7.12.166-.762-.381-1.536-.743-2.297-1.124-2.285-1.143-4.57-2.285-6.849-3.422-5.658-2.832-11.315-5.658-16.979-8.489-2.457-1.229-4.902-2.463-7.365-3.68-2.856 1.431-5.713 2.856-8.569 4.288-5.375 2.691-10.75 5.375-16.125 8.066-2.144 1.069-4.282 2.144-6.425 3.213-1.53.768-3.164 1.806-4.877 2.033-2.562.338-4.841-1.161-7.046-2.261-2.248-1.124-4.49-2.248-6.739-3.372-5.602-2.801-11.205-5.602-16.807-8.403-3.262-1.634-6.524-3.262-9.859-4.933-2.089-1.044-3.403-3.17-3.403-5.498 0-2.697 0-5.4 0-8.096 0-5.854 0-11.708 0-17.569 0-5.664 0-11.327 0-16.985 0-3.514-.829-8.066 1.892-10.861.885-.909 2.021-1.382 3.133-1.941 4.282-2.144 8.569-4.282 12.851-6.425 4.902-2.451 9.81-4.908 14.718-7.359 1.419-.713 2.844-1.419 4.263-2.132 0-2.887 0-5.768 0-8.655 0-6.008 0-12.009 0-18.017 0-5.166 0-10.338 0-15.505 0-3.63.24-7.021 3.796-8.864 1.296-.67 2.611-1.308 3.919-1.96 5.019-2.506 10.037-5.019 15.056-7.525 4.785-2.396 9.571-4.785 14.356-7.181 1.044-.522 2.089-1.044 3.127-1.566 1.726-.866 3.766-.866 5.498 0 1.364.682 2.727 1.364 4.097 2.046 3.213 1.609 6.432 3.213 9.644 4.822 3.753 1.88 7.513 3.759 11.272 5.633 2.985 1.493 5.977 2.992 8.969 4.484.78.393 1.566.78 2.347 1.173 2.525 1.284 3.962 3.6 3.925 6.413-.006.891 0 1.781 0 2.666v9.767 12.599 11.733 7.169.762l8.514 4.257c5.314 2.654 10.627 5.314 15.941 7.967 2.089 1.044 4.177 2.089 6.266 3.133 1.136.565 2.408 1.063 3.446 1.812 2.691 1.947 2.691 4.865 2.691 7.832v6.487 18.558 16.709c-.008 1.534-.008 3.076-.008 4.612z"/><path d="m135.143 154.296-23.122 11.561 23.122 11.561 23.115-11.561z"/><path d="m165.857 175.796-24.571 12.286v35.407l24.571-12.285z"/><path d="m202.714 188.082-24.571-12.286v35.408l24.571 12.285z"/><path d="m215 223.489 24.571-12.285v-35.408l-24.571 12.286z"/><path d="m172 109.847 23.122-11.561-23.122-11.561-23.122 11.561z"/><path d="m129 188.082-24.571-12.286v35.408l24.571 12.285z"/></svg>